<?xml version="1.0" encoding="UTF-8"?>
<!DOCTYPE svg PUBLIC "-//W3C//DTD SVG 1.1//EN" "http://www.w3.org/Graphics/SVG/1.1/DTD/svg11.dtd">
<!-- Creator: CorelDRAW X8 -->
<svg xmlns="http://www.w3.org/2000/svg" xml:space="preserve" width="2500px" height="1002px" version="1.1" style="shape-rendering:geometricPrecision; text-rendering:geometricPrecision; image-rendering:optimizeQuality; fill-rule:evenodd; clip-rule:evenodd"
viewBox="0 0 2500 1002"
 xmlns:xlink="http://www.w3.org/1999/xlink"
 xmlns:cc="http://creativecommons.org/ns#"
 xmlns:dc="http://purl.org/dc/elements/1.1/"
 xmlns:inkscape="http://www.inkscape.org/namespaces/inkscape"
 xmlns:rdf="http://www.w3.org/1999/02/22-rdf-syntax-ns#"
 xmlns:sodipodi="http://sodipodi.sourceforge.net/DTD/sodipodi-0.dtd"
 xmlns:svg="http://www.w3.org/2000/svg"
 enable-background="new 0 0 512 512"
 baseProfile="tiny">
 <defs>
  <style type="text/css">
   <![CDATA[
    .fil0 {fill:#4A555B}
    .fil1 {fill:#B23437}
    .fil2 {fill:#4A555B;fill-rule:nonzero}
   ]]>
  </style>
 </defs>
 <g id="Camada_x0020_1">
  <metadata id="CorelCorpID_0Corel-Layer"/>
  <g id="_2418129645312">
   <path class="fil0" d="M116 0l-68 0 -48 193 232 0c0,14 -17,70 -22,88 -8,28 -15,57 -23,86 -17,56 -30,116 -47,172 -17,57 -30,116 -46,173 -8,29 -16,58 -23,86 -7,26 -18,60 -23,86l265 0 185 -691 265 0 47 -193 -66 0c-9,20 -25,117 -35,125l-270 0 -188 691 -106 0 185 -691 -245 0 31 -125z"/>
   <path class="fil0" d="M1064 318l228 0 -1 -94 -352 1 -1 487c7,2 343,2 354,0l0 -93 -228 0 0 -122 212 -1 0 -93 -212 -1 0 -84z"/>
   <path class="fil0" d="M1790 481c-2,-18 8,-42 21,-53 35,-33 135,-33 130,53l-151 0zm262 117c-17,-2 -21,6 -36,15 -55,31 -147,43 -195,4 -16,-13 -34,-43 -31,-66l270 0c-1,-53 3,-103 -28,-150 -26,-39 -64,-58 -110,-65 -97,-14 -197,16 -237,111 -18,43 -20,109 -5,153 51,150 256,141 373,93l-1 -95z"/>
   <path class="fil1" d="M508 351c0,14 -36,136 -42,159 -4,16 -42,155 -42,155l-72 268 -187 1 -18 68 265 0c8,-27 50,-199 57,-207 -1,-10 44,-172 51,-196l39 -146c3,-10 9,-39 13,-46l26 -97 265 0 45 -185 -67 0 -31 117 -272 1c-3,14 -25,103 -30,108z"/>
   <path class="fil0" d="M1349 425l47 1c3,42 1,91 1,134 0,39 -3,82 18,115 35,56 154,53 210,35l0 -80c-20,-1 -104,39 -109,-36 -4,-53 -1,-115 -1,-168l110 -1 0 -80 -110 0 -1 -105 -117 0 -1 105 -48 0 1 80z"/>
   <path class="fil0" d="M2441 595c-53,60 -213,79 -204,-77 3,-53 29,-93 84,-99 26,-3 54,2 76,14 41,21 32,33 61,30l0 -100c-25,-16 -85,-28 -114,-29 -127,-5 -229,54 -230,194 0,81 33,144 108,176 38,16 82,20 123,19 30,0 89,-12 113,-29l0 -99 -17 0z"/>
   <path class="fil2" d="M929 992l0 -104 75 0 0 12 -61 0 0 32 58 0 0 12 -58 0 0 36 64 0 0 12 -78 0zm90 -22l13 -2c1,5 3,8 6,11 3,3 8,4 14,4 5,0 10,-1 13,-3 3,-3 4,-6 4,-9 0,-3 -1,-5 -4,-7 -2,-1 -6,-2 -13,-4 -9,-2 -16,-4 -19,-6 -4,-2 -7,-4 -9,-7 -2,-3 -3,-7 -3,-10 0,-4 1,-7 3,-10 1,-3 3,-5 6,-7 2,-1 5,-3 8,-4 4,-1 7,-1 11,-1 6,0 11,1 16,3 4,1 8,4 10,6 2,3 3,7 4,12l-12 2c-1,-4 -3,-7 -5,-9 -3,-2 -7,-4 -12,-4 -6,0 -10,1 -12,3 -3,2 -4,5 -4,7 0,2 0,3 1,5 1,1 3,2 5,3 2,1 5,2 12,3 9,3 15,5 19,6 3,2 6,4 8,7 2,3 3,7 3,11 0,4 -1,8 -4,12 -2,4 -6,7 -10,9 -5,2 -10,3 -16,3 -10,0 -18,-2 -23,-6 -5,-4 -8,-10 -10,-18zm128 -6l12 2c-1,9 -5,16 -10,20 -6,5 -13,8 -21,8 -11,0 -19,-4 -25,-10 -6,-7 -10,-17 -10,-29 0,-9 2,-16 5,-22 2,-6 6,-10 12,-13 5,-4 11,-5 18,-5 8,0 15,2 20,6 5,4 9,10 10,18l-12 2c-2,-5 -4,-9 -7,-12 -3,-2 -6,-4 -11,-4 -6,0 -11,3 -15,7 -4,5 -6,12 -6,22 0,10 2,18 5,22 4,5 9,7 16,7 5,0 9,-1 12,-4 4,-3 6,-8 7,-15zm18 -10c0,-14 4,-24 12,-31 6,-5 14,-8 24,-8 10,0 19,3 25,10 7,7 10,16 10,28 0,10 -1,18 -4,23 -3,6 -7,10 -13,13 -6,3 -12,5 -18,5 -11,0 -19,-4 -26,-10 -6,-7 -10,-17 -10,-30zm13 0c0,10 2,17 7,22 4,5 9,7 16,7 6,0 11,-2 16,-7 4,-5 6,-12 6,-22 0,-9 -2,-16 -6,-21 -5,-5 -10,-7 -16,-7 -7,0 -12,2 -16,7 -5,5 -7,12 -7,21zm73 38l0 -104 13 0 0 104 -13 0zm82 -9c-5,4 -9,7 -14,8 -4,2 -9,3 -14,3 -8,0 -15,-2 -19,-6 -5,-4 -7,-10 -7,-16 0,-3 1,-7 3,-10 1,-3 4,-5 6,-7 3,-2 6,-4 9,-4 3,-1 7,-2 12,-2 10,-2 18,-3 23,-5 0,-2 0,-3 0,-3 0,-5 -1,-9 -4,-11 -3,-3 -8,-4 -14,-4 -6,0 -11,1 -14,3 -3,2 -5,6 -6,11l-13 -2c1,-5 3,-9 6,-13 3,-3 6,-6 11,-7 5,-2 11,-3 17,-3 7,0 12,1 16,2 4,2 7,4 9,6 2,2 3,5 4,9 1,2 1,6 1,11l0 17c0,12 0,20 1,23 0,3 1,6 3,9l-14 0c-1,-3 -2,-6 -2,-9zm-1 -29c-5,2 -12,4 -21,5 -5,1 -9,2 -11,3 -3,1 -4,2 -5,4 -2,2 -2,4 -2,6 0,3 1,6 4,8 2,3 6,4 11,4 5,0 9,-1 13,-4 4,-2 7,-5 9,-8 1,-3 2,-7 2,-13l0 -5zm98 38l0 -92 -34 0 0 -12 83 0 0 12 -35 0 0 92 -14 0zm113 -24l13 1c-2,8 -6,14 -11,18 -6,5 -13,7 -22,7 -11,0 -20,-4 -26,-10 -7,-7 -10,-17 -10,-29 0,-13 3,-23 10,-30 6,-7 15,-10 25,-10 10,0 19,3 25,10 6,7 10,17 10,29 0,1 0,2 0,4l-57 0c1,8 3,14 7,19 4,4 10,6 16,6 5,0 9,-1 12,-3 3,-3 6,-7 8,-12zm-42 -21l42 0c-1,-6 -2,-11 -5,-14 -4,-5 -9,-8 -16,-8 -5,0 -10,2 -14,6 -4,4 -7,10 -7,16zm11 -40l9 -20 17 0 -16 20 -10 0zm110 57l12 2c-1,9 -5,16 -10,20 -6,5 -13,8 -21,8 -10,0 -19,-4 -25,-10 -6,-7 -9,-17 -9,-29 0,-9 1,-16 4,-22 2,-6 6,-10 12,-13 5,-4 11,-5 18,-5 8,0 15,2 20,6 5,4 9,10 10,18l-12 2c-1,-5 -4,-9 -7,-12 -3,-2 -6,-4 -11,-4 -6,0 -11,3 -15,7 -4,5 -6,12 -6,22 0,10 2,18 5,22 4,5 9,7 16,7 5,0 9,-1 12,-4 4,-3 6,-8 7,-15zm23 28l0 -75 12 0 0 10c5,-8 13,-12 24,-12 4,0 8,1 12,2 4,2 7,4 9,7 2,2 3,6 4,9 0,3 1,7 1,13l0 46 -13 0 0 -46c0,-5 -1,-9 -2,-11 -1,-3 -3,-5 -5,-7 -3,-1 -6,-2 -9,-2 -5,0 -10,2 -14,5 -4,4 -6,10 -6,20l0 41 -13 0zm81 -90l0 -14 13 0 0 14 -13 0zm0 90l0 -75 13 0 0 75 -13 0zm82 -28l12 2c-1,9 -4,16 -10,20 -6,5 -13,8 -21,8 -10,0 -19,-4 -25,-10 -6,-7 -9,-17 -9,-29 0,-9 1,-16 4,-22 3,-6 7,-10 12,-13 6,-4 12,-5 18,-5 8,0 15,2 20,6 6,4 9,10 10,18l-12 2c-1,-5 -3,-9 -6,-12 -3,-2 -7,-4 -11,-4 -7,0 -12,3 -16,7 -4,5 -6,12 -6,22 0,10 2,18 6,22 4,5 9,7 15,7 5,0 9,-1 13,-4 3,-3 5,-8 6,-15zm73 19c-5,4 -10,7 -14,8 -4,2 -9,3 -14,3 -8,0 -15,-2 -19,-6 -5,-4 -7,-10 -7,-16 0,-3 1,-7 3,-10 1,-3 3,-5 6,-7 3,-2 6,-4 9,-4 3,-1 7,-2 12,-2 10,-2 18,-3 23,-5 0,-2 0,-3 0,-3 0,-5 -1,-9 -4,-11 -3,-3 -8,-4 -14,-4 -7,0 -11,1 -14,3 -3,2 -5,6 -6,11l-13 -2c1,-5 3,-9 6,-13 2,-3 6,-6 11,-7 5,-2 11,-3 17,-3 7,0 12,1 16,2 4,2 7,4 9,6 2,2 3,5 4,9 1,2 1,6 1,11l0 17c0,12 0,20 1,23 0,3 1,6 3,9l-14 0c-1,-3 -2,-6 -2,-9zm-1 -29c-5,2 -12,4 -21,5 -5,1 -9,2 -11,3 -3,1 -4,2 -5,4 -2,2 -2,4 -2,6 0,3 1,6 4,8 2,3 6,4 11,4 5,0 9,-1 13,-4 4,-2 7,-5 9,-8 1,-3 2,-7 2,-13l0 -5zm75 38l0 -104 75 0 0 12 -61 0 0 32 57 0 0 12 -57 0 0 36 64 0 0 12 -78 0zm90 -22l13 -2c0,5 2,8 6,11 3,3 7,4 13,4 6,0 11,-1 13,-3 3,-3 5,-6 5,-9 0,-3 -2,-5 -4,-7 -2,-1 -6,-2 -13,-4 -10,-2 -16,-4 -20,-6 -3,-2 -6,-4 -8,-7 -2,-3 -3,-7 -3,-10 0,-4 1,-7 2,-10 2,-3 4,-5 7,-7 2,-1 4,-3 8,-4 3,-1 7,-1 11,-1 6,0 11,1 16,3 4,1 7,4 9,6 3,3 4,7 5,12l-13 2c0,-4 -2,-7 -5,-9 -2,-2 -6,-4 -11,-4 -6,0 -10,1 -13,3 -2,2 -3,5 -3,7 0,2 0,3 1,5 1,1 3,2 5,3 1,1 5,2 11,3 9,3 16,5 19,6 4,2 7,4 9,7 2,3 3,7 3,11 0,4 -1,8 -4,12 -2,4 -6,7 -11,9 -4,2 -10,3 -16,3 -10,0 -17,-2 -22,-6 -5,-4 -9,-10 -10,-18zm106 11l1 11c-3,1 -6,1 -9,1 -5,0 -8,-1 -11,-2 -3,-2 -4,-3 -5,-6 -1,-2 -2,-7 -2,-15l0 -44 -9 0 0 -9 9 0 0 -19 13 -8 0 27 13 0 0 9 -13 0 0 45c0,3 0,6 1,7 0,1 1,2 2,2 1,1 2,1 4,1 2,0 3,0 6,0zm62 2c-5,4 -10,7 -14,8 -4,2 -9,3 -14,3 -8,0 -15,-2 -19,-6 -5,-4 -7,-10 -7,-16 0,-3 1,-7 3,-10 1,-3 3,-5 6,-7 3,-2 6,-4 9,-4 3,-1 7,-2 12,-2 10,-2 18,-3 23,-5 0,-2 0,-3 0,-3 0,-5 -1,-9 -4,-11 -3,-3 -8,-4 -15,-4 -6,0 -10,1 -13,3 -3,2 -5,6 -6,11l-13 -2c1,-5 3,-9 6,-13 2,-3 6,-6 11,-7 5,-2 11,-3 17,-3 7,0 12,1 16,2 4,2 7,4 9,6 2,2 3,5 4,9 0,2 1,6 1,11l0 17c0,12 0,20 1,23 0,3 1,6 3,9l-14 0c-1,-3 -2,-6 -2,-9zm-1 -29c-5,2 -12,4 -21,5 -6,1 -9,2 -11,3 -3,1 -4,2 -5,4 -2,2 -2,4 -2,6 0,3 1,6 4,8 2,3 6,4 11,4 5,0 9,-1 13,-4 4,-2 7,-5 9,-8 1,-3 2,-7 2,-13l0 -5zm81 38l0 -9c-5,7 -12,11 -21,11 -6,0 -11,-2 -16,-5 -6,-4 -9,-8 -12,-14 -3,-6 -4,-13 -4,-21 0,-7 1,-14 3,-20 3,-6 7,-11 12,-14 5,-3 10,-5 17,-5 4,0 8,1 12,3 3,2 6,4 8,7l0 -37 13 0 0 104 -12 0zm-40 -38c0,10 2,17 6,22 4,5 9,7 14,7 6,0 11,-2 15,-7 4,-4 6,-11 6,-20 0,-11 -2,-18 -6,-23 -4,-5 -9,-7 -15,-7 -6,0 -11,2 -15,7 -3,4 -5,11 -5,21zm122 38l0 -11c-6,8 -14,13 -24,13 -5,0 -9,-1 -13,-3 -3,-2 -6,-4 -8,-6 -2,-3 -3,-6 -4,-10 -1,-2 -1,-6 -1,-12l0 -46 13 0 0 41c0,7 0,12 1,14 1,3 2,6 5,8 2,2 6,3 9,3 4,0 8,-1 11,-3 4,-2 6,-5 7,-8 2,-4 3,-9 3,-15l0 -40 12 0 0 75 -11 0zm81 -9c-5,4 -10,7 -14,8 -4,2 -9,3 -14,3 -8,0 -15,-2 -19,-6 -5,-4 -7,-10 -7,-16 0,-3 1,-7 3,-10 1,-3 4,-5 6,-7 3,-2 6,-4 9,-4 3,-1 7,-2 12,-2 10,-2 18,-3 23,-5 0,-2 0,-3 0,-3 0,-5 -1,-9 -4,-11 -3,-3 -8,-4 -14,-4 -6,0 -11,1 -14,3 -3,2 -5,6 -6,11l-13 -2c1,-5 3,-9 6,-13 3,-3 6,-6 11,-7 5,-2 11,-3 17,-3 7,0 12,1 16,2 4,2 7,4 9,6 2,2 3,5 4,9 1,2 1,6 1,11l0 17c0,12 0,20 1,23 0,3 1,6 3,9l-14 0c-1,-3 -2,-6 -2,-9zm-1 -29c-5,2 -12,4 -21,5 -5,1 -9,2 -11,3 -3,1 -4,2 -5,4 -2,2 -2,4 -2,6 0,3 1,6 4,8 2,3 6,4 11,4 5,0 9,-1 13,-4 4,-2 7,-5 9,-8 1,-3 2,-7 2,-13l0 -5zm32 38l0 -104 13 0 0 104 -13 0z"/>
  </g>
 </g>
</svg>
